HIERARCHY
ROOT Hips
{
	OFFSET 0.000000 0.000000 0.000000
	CHANNELS 6 Xposition Yposition Zposition Xrotation Yrotation Zrotation
	JOINT LeftUpLeg_virtual
	{
		OFFSET 0.000000 0.000000 0.000000
		CHANNELS 3 Xrotation Yrotation Zrotation
		JOINT LeftUpLeg
		{
			OFFSET 10.205400 -3.823500 0.155100
			CHANNELS 3 Xrotation Yrotation Zrotation
			JOINT LeftLeg
			{
				OFFSET 0.708757 -12.982077 0.567790
				CHANNELS 3 Xrotation Yrotation Zrotation
				JOINT LeftFoot
				{
					OFFSET -0.708756 -10.717838 -2.184338
					CHANNELS 3 Xrotation Yrotation Zrotation
					JOINT LeftToeBase
					{
						OFFSET 0.108149 -7.191104 7.560241
						CHANNELS 3 Xrotation Yrotation Zrotation
						JOINT LeftToe_End
						{
							OFFSET 0.070230 0.081724 4.490308
							CHANNELS 3 Xrotation Yrotation Zrotation
							End Site
							{
								OFFSET 0 0 0
							}
						}
					}
				}
			}
		}
	}
	JOINT RightUpLeg_virtual
	{
		OFFSET 0.000000 0.000000 0.000000
		CHANNELS 3 Xrotation Yrotation Zrotation
		JOINT RightUpLeg
		{
			OFFSET -10.205400 -3.823500 0.005500
			CHANNELS 3 Xrotation Yrotation Zrotation
			JOINT RightLeg
			{
				OFFSET -0.708756 -12.982134 0.610632
				CHANNELS 3 Xrotation Yrotation Zrotation
				JOINT RightFoot
				{
					OFFSET 0.708754 -10.717769 -1.945823
					CHANNELS 3 Xrotation Yrotation Zrotation
					JOINT RightToeBase
					{
						OFFSET -0.108140 -7.191069 7.372968
						CHANNELS 3 Xrotation Yrotation Zrotation
						JOINT RightToe_End
						{
							OFFSET -0.070227 0.081735 4.479403
							CHANNELS 3 Xrotation Yrotation Zrotation
							End Site
							{
								OFFSET 0 0 0
							}
						}
					}
				}
			}
		}
	}
	JOINT Spine_virtual
	{
		OFFSET 0.000000 0.000000 0.000000
		CHANNELS 3 Xrotation Yrotation Zrotation
		JOINT Spine
		{
			OFFSET 0.000000 6.876099 0.125700
			CHANNELS 3 Xrotation Yrotation Zrotation
			JOINT Spine1
			{
				OFFSET 0.000000 5.730043 0.104720
				CHANNELS 3 Xrotation Yrotation Zrotation
				JOINT Spine1_split
				{
					OFFSET 0.000000 5.730043 0.104720
					CHANNELS 3 Xrotation Yrotation Zrotation
					JOINT Spine2
					{
						OFFSET 0.000000 5.730043 0.104720
						CHANNELS 3 Xrotation Yrotation Zrotation
						JOINT Neck_virtual
						{
							OFFSET 0.000000 0.000000 0.000000
							CHANNELS 3 Xrotation Yrotation Zrotation
							JOINT Neck
							{
								OFFSET 0.000000 10.314075 0.188496
								CHANNELS 3 Xrotation Yrotation Zrotation
								JOINT Head
								{
									OFFSET 0.000000 7.643700 -2.377400
									CHANNELS 3 Xrotation Yrotation Zrotation
									JOINT HeadTop_End
									{
										OFFSET 0.000000 43.788605 -13.619600
										CHANNELS 3 Xrotation Yrotation Zrotation
										End Site
										{
											OFFSET 0 0 0
										}
									}
								}
							}
						}
						JOINT LeftShoulder_virtual
						{
							OFFSET 0.000000 0.000000 0.000000
							CHANNELS 3 Xrotation Yrotation Zrotation
							JOINT LeftShoulder
							{
								OFFSET 2.196100 4.412489 0.087492
								CHANNELS 3 Xrotation Yrotation Zrotation
								JOINT LeftShoulder_split
								{
									OFFSET 2.196100 4.412489 0.087492
									CHANNELS 3 Xrotation Yrotation Zrotation
									JOINT LeftArm
									{
										OFFSET 8.771219 -2.981674 -0.026999
										CHANNELS 3 Xrotation Yrotation Zrotation
										JOINT LeftForeArm
										{
											OFFSET 8.512804 0.000000 -0.000000
											CHANNELS 3 Xrotation Yrotation Zrotation
											JOINT LeftHand
											{
												OFFSET 18.484802 0.000000 -0.000000
												CHANNELS 3 Xrotation Yrotation Zrotation
												End Site
												{
													OFFSET 0 0 0
												}
											}
										}
									}
								}
							}
						}
						JOINT RightShoulder_virtual
						{
							OFFSET 0.000000 0.000000 0.000000
							CHANNELS 3 Xrotation Yrotation Zrotation
							JOINT RightShoulder
							{
								OFFSET -2.196100 4.412496 0.070690
								CHANNELS 3 Xrotation Yrotation Zrotation
								JOINT RightShoulder_split
								{
									OFFSET -2.196100 4.412496 0.070690
									CHANNELS 3 Xrotation Yrotation Zrotation
									JOINT RightArm
									{
										OFFSET -8.771282 -2.981682 -0.094208
										CHANNELS 3 Xrotation Yrotation Zrotation
										JOINT RightForeArm
										{
											OFFSET -8.494598 0.000000 0.000000
											CHANNELS 3 Xrotation Yrotation Zrotation
											JOINT RightHand
											{
												OFFSET -18.483803 0.000000 0.000001
												CHANNELS 3 Xrotation Yrotation Zrotation
												End Site
												{
													OFFSET 0 0 0
												}
											}
										}
									}
								}
							}
						}
					}
				}
			}
		}
	}
}
MOTION
Frames: 8
Frame Time: 0.03333333
0.213690 38.254852 -2.044329 0.000000 0.000000 0.000000 -86.105251 -4.802335 1.333212 12.865261 21.049970 7.641862 -4.289551 5.125802 8.586673 36.408358 27.468325 -34.394746 -11.101742 0.304962 5.029620 0.000000 0.000000 0.000000 -88.109167 -0.699660 4.308973 15.288853 -22.754963 -16.529862 -7.591491 0.832115 -9.078030 38.482409 -32.191201 43.022170 -7.850117 1.454989 -2.164622 0.000000 0.000000 0.000000 -86.527309 -6.379307 -1.064773 4.987470 -2.246719 0.797519 4.703696 -0.946405 -1.480424 0.454451 0.698217 -0.375471 0.000000 0.000000 0.000000 5.561641 -1.505453 -1.288139 -8.418800 -1.513432 2.458977 -9.706018 -3.638059 4.562795 0.000000 0.000000 0.000000 6.595705 -1.560946 -0.938203 -0.235795 3.598223 -7.803467 -4.304402 1.847895 -4.318391 39.846545 -32.325574 -34.510989 -26.230554 -88.387839 -25.695694 0.000000 0.000000 0.000000 5.937507 -1.497338 -1.408107 0.442324 -3.276383 19.419051 1.142488 2.512557 0.184138 -41.173043 49.669744 58.706658 179.789294 76.734375 178.668036 0.000000 0.000000 0.000000 
0.186795 38.265007 -2.218807 0.000000 0.000000 0.000000 -86.924908 -4.740373 1.475523 14.192167 21.111145 7.708527 -4.385324 5.606595 8.708016 35.844368 27.888965 -34.637173 -11.013167 0.316224 5.174398 0.000000 0.000000 0.000000 -89.178344 -0.494794 4.683909 15.695812 -23.763266 -16.434215 -7.424341 0.888744 -9.087028 38.435534 -31.853140 42.883141 -7.802648 1.537959 -2.037808 0.000000 0.000000 0.000000 -87.575381 -6.151920 -0.811203 4.975879 -2.322474 0.830305 4.433153 -1.016089 -1.614636 0.633433 0.687302 -0.411272 0.000000 0.000000 0.000000 5.460611 -1.557818 -1.444333 -9.126651 -1.389368 2.611950 -11.657612 -3.134815 5.383104 0.000000 0.000000 0.000000 6.460658 -1.612682 -1.101866 -0.186843 3.122697 -7.065212 -4.476125 1.528253 -4.175048 38.942617 -32.229730 -35.820709 -27.141922 -88.525412 -26.506894 0.000000 0.000000 0.000000 5.723435 -1.530978 -1.515963 0.445191 -3.007708 18.109444 0.843289 2.831211 -0.122540 -44.990880 47.878482 61.352598 -178.402492 77.916421 176.832573 0.000000 0.000000 0.000000 
0.177925 38.252693 -2.292402 0.000000 0.000000 0.000000 -87.460798 -4.697901 1.499697 15.034034 20.961586 8.083982 -4.253470 5.965607 8.805246 35.489096 28.424372 -34.845890 -10.992266 0.305373 5.360861 0.000000 0.000000 0.000000 -89.864239 -0.439417 4.797346 15.834434 -24.521030 -16.195780 -7.435275 0.857134 -9.025708 39.028121 -31.433241 42.791702 -8.311635 1.592258 -1.927383 0.000000 0.000000 0.000000 -88.272497 -5.966482 -0.695347 4.916531 -2.290611 0.953167 4.336828 -1.024886 -1.661483 0.806885 0.657716 -0.403496 0.000000 0.000000 0.000000 5.406549 -1.542279 -1.539065 -9.325197 -1.219712 2.426057 -11.911527 -2.557521 5.842572 0.000000 0.000000 0.000000 6.431595 -1.615153 -1.217500 -0.155046 2.595536 -6.611066 -4.536657 1.274915 -3.873973 38.370217 -32.280895 -36.524331 -27.751953 -88.859450 -27.097509 0.000000 0.000000 0.000000 5.659644 -1.475715 -1.536657 0.470974 -2.706675 17.072304 0.413321 2.989431 -0.368479 -46.530937 46.922594 61.926675 -176.622149 78.984431 175.073717 0.000000 0.000000 0.000000 
0.183440 38.229126 -2.281443 0.000000 0.000000 0.000000 -87.668579 -4.671065 1.417444 15.295942 20.582451 8.668639 -3.948246 6.140708 8.886104 35.408729 28.943958 -35.043945 -10.949306 0.284966 5.512767 0.000000 0.000000 0.000000 -90.123376 -0.552889 4.621134 15.798451 -24.859150 -15.893546 -7.586383 0.796360 -8.955808 40.223315 -30.932393 42.920598 -9.375807 1.600773 -1.877694 0.000000 0.000000 0.000000 -88.595989 -5.866854 -0.732434 4.831605 -2.148925 1.142666 4.355182 -0.992378 -1.623545 1.037183 0.637031 -0.352314 0.000000 0.000000 0.000000 5.358805 -1.464449 -1.569341 -8.936304 -1.052523 1.950132 -10.339744 -1.957118 5.924995 0.000000 0.000000 0.000000 6.480678 -1.586832 -1.269531 -0.134660 2.128626 -6.448803 -4.377233 1.075376 -3.385213 38.259031 -32.541480 -36.587151 -29.053880 -89.302825 -28.444570 0.000000 0.000000 0.000000 5.738170 -1.364825 -1.479319 0.528918 -2.472128 16.442630 -0.034298 3.013649 -0.510219 -45.142278 47.150336 60.203978 -175.535028 79.613764 174.097560 0.000000 0.000000 0.000000 
0.191076 38.191296 -2.190136 0.000000 0.000000 0.000000 -87.606178 -4.730727 1.208229 14.998269 19.976411 9.310186 -3.597485 6.117955 8.992694 35.593820 29.410241 -35.197949 -10.772952 0.280447 5.524390 0.000000 0.000000 0.000000 -89.909359 -0.743719 4.257574 15.708486 -24.689580 -15.498780 -7.890544 0.748157 -8.975803 41.621769 -30.602963 43.112028 -10.496275 1.564342 -1.909370 0.000000 0.000000 0.000000 -88.563231 -5.881896 -0.932183 4.733856 -1.934354 1.340208 4.434873 -0.951355 -1.528253 1.238777 0.520943 -0.226538 0.000000 0.000000 0.000000 5.291270 -1.360951 -1.534056 -7.923618 -0.920776 1.308351 -6.918699 -1.444736 5.602423 0.000000 0.000000 0.000000 6.600376 -1.559619 -1.260223 -0.113972 1.826160 -6.504631 -4.131096 1.021389 -2.844497 38.542495 -32.942286 -36.175421 -38.665773 -89.689728 -38.136856 0.000000 0.000000 0.000000 5.906332 -1.251945 -1.364557 0.611230 -2.417080 16.284964 -0.257614 3.061900 -0.606481 -40.345125 48.282467 56.099366 -175.752310 79.319199 174.537875 0.000000 0.000000 0.000000 
0.199068 38.144730 -2.087397 0.000000 0.000000 0.000000 -87.251036 -4.874924 0.897054 14.231602 19.235503 9.851225 -3.384910 5.966916 9.126101 35.827897 29.867140 -35.186092 -10.385898 0.302590 5.347020 0.000000 0.000000 0.000000 -89.334319 -0.964321 3.780715 15.611791 -24.051521 -15.027629 -8.291456 0.672421 -9.103603 42.833342 -30.662936 43.169278 -11.233346 1.512825 -1.983498 0.000000 0.000000 0.000000 -88.204318 -6.002951 -1.267634 4.651717 -1.695351 1.496830 4.537281 -0.936598 -1.381627 1.309448 0.322976 -0.160236 0.000000 0.000000 0.000000 5.177040 -1.256412 -1.441380 -6.324987 -0.860069 0.602476 -1.888225 -1.181192 4.915981 0.000000 0.000000 0.000000 6.752759 -1.552758 -1.177091 -0.093183 1.800326 -6.679642 -3.776942 1.021990 -2.364216 39.108939 -33.480891 -35.476433 -52.128004 -89.814426 -51.714849 0.000000 0.000000 0.000000 6.112735 -1.166611 -1.210858 0.715148 -2.653773 16.572404 -0.238017 3.146923 -0.638298 -32.199014 49.453585 49.775137 -177.191786 77.748822 176.279765 0.000000 0.000000 0.000000 
0.192216 38.090492 -1.961802 0.000000 0.000000 0.000000 -86.681774 -5.082815 0.526003 13.144117 18.548875 10.222199 -3.435950 5.749896 9.285258 35.994434 30.238088 -34.957929 -9.952661 0.338942 5.021579 0.000000 0.000000 0.000000 -88.486972 -1.155664 3.309021 15.488994 -23.082064 -14.546204 -8.699468 0.573620 -9.340939 43.773166 -31.082982 43.008434 -11.584631 1.478068 -2.048928 0.000000 0.000000 0.000000 -87.612339 -6.172993 -1.677836 4.620948 -1.479259 1.576641 4.635164 -0.964485 -1.196199 1.296401 0.297463 -0.108703 0.000000 0.000000 0.000000 5.011206 -1.187904 -1.293802 -4.258027 -0.916627 -0.061698 4.341937 -1.227701 3.964486 0.000000 0.000000 0.000000 6.883389 -1.582617 -1.026038 -0.074204 2.080826 -6.864277 -3.503118 0.998657 -2.044765 39.790626 -34.135151 -34.665898 -31.022552 -89.570213 -30.746090 0.000000 0.000000 0.000000 6.281978 -1.133219 -1.026838 0.829876 -3.238240 17.257661 -0.080664 3.310842 -0.691482 -21.952117 49.565474 42.384862 -178.797987 74.866947 178.227516 0.000000 0.000000 0.000000 
0.177999 38.031281 -1.846891 0.000000 0.000000 0.000000 -85.961073 -5.333622 0.110925 11.851918 18.056975 10.428361 -3.700241 5.483835 9.425548 36.088763 30.392446 -34.575155 -9.701695 0.354472 4.677965 0.000000 0.000000 0.000000 -87.544748 -1.311136 2.851373 15.253424 -21.996044 -14.098748 -9.033751 0.480783 -9.624898 44.696447 -31.579127 42.817619 -11.835517 1.476658 -2.107187 0.000000 0.000000 0.000000 -86.854618 -6.355081 -2.128232 4.669793 -1.326990 1.571332 4.701442 -1.052572 -0.980703 1.179413 0.350213 -0.146712 0.000000 0.000000 0.000000 4.793045 -1.168790 -1.100839 -1.906961 -1.036111 -0.626121 11.115817 -1.638941 2.884872 0.000000 0.000000 0.000000 6.941151 -1.654194 -0.819182 -0.064095 2.632290 -6.991553 -3.256395 0.987108 -1.982912 40.502988 -34.908994 -33.855161 -21.137234 -88.866157 -21.016414 0.000000 0.000000 0.000000 6.370243 -1.156081 -0.818369 0.957560 -4.149413 18.218181 0.147914 3.441184 -0.606112 -11.769033 48.078794 35.763113 -179.920420 71.145381 179.656050 0.000000 0.000000 0.000000 
